<svg width="26" height="27" viewBox="0 0 26 27" fill="none" xmlns="http://www.w3.org/2000/svg">
<path fill-rule="evenodd" clip-rule="evenodd" d="M15.9537 3.73709C17.8785 1.81225 20.9994 1.81225 22.9242 3.73709C24.849 5.66193 24.849 8.78271 22.9242 10.7076L12.9397 20.6921C12.3693 21.2625 12.0334 21.5984 11.6598 21.8898C11.2196 22.2331 10.7431 22.5277 10.239 22.7679C9.81132 22.9717 9.36077 23.1219 8.5954 23.3769L5.08895 24.5458L4.24466 24.8272C3.55986 25.0555 2.80486 24.8772 2.29444 24.3668C1.78402 23.8564 1.60578 23.1014 1.83406 22.4166L3.28429 18.0659C3.5394 17.3005 3.68955 16.85 3.89338 16.4223C4.13363 15.9182 4.42807 15.4418 4.77151 15.0015C5.06289 14.6279 5.39872 14.2921 5.96923 13.7216L15.9537 3.73709ZM5.05253 22.8936L8.04361 21.8965C8.87635 21.6189 9.23017 21.4996 9.55971 21.3425C9.96028 21.1517 10.3389 20.9177 10.6888 20.6447C10.9766 20.4202 11.2416 20.1571 11.8623 19.5364L19.8302 11.5686C19 11.2758 17.9305 10.7331 16.9294 9.73189C15.9282 8.7307 15.3855 7.66124 15.0927 6.83109L7.12481 14.7989C6.50411 15.4197 6.24104 15.6846 6.01652 15.9725C5.74362 16.3224 5.50964 16.7009 5.31874 17.1016C5.16169 17.431 5.04231 17.7849 4.76472 18.6177L3.7677 21.6087L5.05253 22.8936ZM16.3735 5.55034C16.4095 5.73451 16.4703 5.98487 16.5718 6.27753C16.8004 6.93644 17.2322 7.80175 18.0459 8.6154C18.8595 9.42905 19.7248 9.86086 20.3837 10.0895C20.6764 10.191 20.9267 10.2518 21.1109 10.2878L21.8077 9.59106C23.1159 8.28284 23.1159 6.16179 21.8077 4.85357C20.4995 3.54535 18.3784 3.54535 17.0702 4.85357L16.3735 5.55034Z" fill="#1C274C"/>
</svg>
