<svg width="21" height="23" viewBox="0 0 21 23" fill="none" xmlns="http://www.w3.org/2000/svg">
<path d="M6 1V4" stroke="black" stroke-width="1.5" stroke-miterlimit="10" stroke-linecap="round" stroke-linejoin="round"/>
<path d="M14 1V4" stroke="black" stroke-width="1.5" stroke-miterlimit="10" stroke-linecap="round" stroke-linejoin="round"/>
<path opacity="0.4" d="M1.5 8.08984H18.5" stroke="black" stroke-width="1.5" stroke-miterlimit="10" stroke-linecap="round" stroke-linejoin="round"/>
<path d="M20 18C20 18.75 19.79 19.46 19.42 20.06C18.73 21.22 17.46 22 16 22C14.99 22 14.07 21.63 13.37 21C13.06 20.74 12.79 20.42 12.58 20.06C12.21 19.46 12 18.75 12 18C12 15.79 13.79 14 16 14C17.2 14 18.27 14.53 19 15.36C19.62 16.07 20 16.99 20 18Z" stroke="black" stroke-width="1.5" stroke-miterlimit="10" stroke-linecap="round" stroke-linejoin="round"/>
<path d="M14.4404 18L15.4304 18.99L17.5604 17.02" stroke="black" stroke-width="1.5" stroke-linecap="round" stroke-linejoin="round"/>
<path d="M19 7.5V15.36C18.27 14.53 17.2 14 16 14C13.79 14 12 15.79 12 18C12 18.75 12.21 19.46 12.58 20.06C12.79 20.42 13.06 20.74 13.37 21H6C2.5 21 1 19 1 16V7.5C1 4.5 2.5 2.5 6 2.5H14C17.5 2.5 19 4.5 19 7.5Z" stroke="black" stroke-width="1.5" stroke-miterlimit="10" stroke-linecap="round" stroke-linejoin="round"/>
<path opacity="0.4" d="M9.99548 12.7002H10.0045" stroke="black" stroke-width="2" stroke-linecap="round" stroke-linejoin="round"/>
<path opacity="0.4" d="M6.29431 12.7002H6.30329" stroke="black" stroke-width="2" stroke-linecap="round" stroke-linejoin="round"/>
<path opacity="0.4" d="M6.29492 15.7002H6.3039" stroke="black" stroke-width="2" stroke-linecap="round" stroke-linejoin="round"/>
</svg>
