<svg width="18" height="18" viewBox="0 0 18 18" fill="none" xmlns="http://www.w3.org/2000/svg">
<path d="M6 17.7499H3C2.65324 17.7647 2.30697 17.7109 1.98101 17.5917C1.65505 17.4725 1.3558 17.2902 1.10038 17.0552C0.84495 16.8202 0.63837 16.5371 0.49246 16.2222C0.34654 15.9073 0.26415 15.5667 0.25 15.2199V2.77994C0.26415 2.43316 0.34654 2.09256 0.49246 1.77765C0.63837 1.46274 0.84495 1.17969 1.10038 0.944704C1.3558 0.709714 1.65505 0.527394 1.98101 0.408184C2.30697 0.288964 2.65324 0.235194 3 0.249944H6C6.19891 0.249944 6.38968 0.328964 6.53033 0.469614C6.67098 0.610274 6.75 0.801034 6.75 0.999944C6.75 1.19886 6.67098 1.38962 6.53033 1.53027C6.38968 1.67093 6.19891 1.74994 6 1.74994H3C2.70307 1.72412 2.4076 1.81359 2.17487 1.99977C1.94213 2.18596 1.78999 2.45459 1.75 2.74994V15.2199C1.78999 15.5153 1.94213 15.7839 2.17487 15.9701C2.4076 16.1563 2.70307 16.2458 3 16.2199H6C6.19891 16.2199 6.38968 16.299 6.53033 16.4396C6.67098 16.5803 6.75 16.771 6.75 16.9699C6.75 17.1689 6.67098 17.3596 6.53033 17.5003C6.38968 17.6409 6.19891 17.7199 6 17.7199V17.7499Z" fill="white"/>
<path d="M13 13.7499C12.9015 13.7504 12.8038 13.7312 12.7128 13.6934C12.6218 13.6556 12.5392 13.6 12.47 13.5299C12.3296 13.3893 12.2507 13.1987 12.2507 12.9999C12.2507 12.8012 12.3296 12.6105 12.47 12.4699L15.94 8.9999L12.47 5.52991C12.3963 5.46125 12.3372 5.37845 12.2962 5.28645C12.2552 5.19445 12.2332 5.09513 12.2314 4.99443C12.2296 4.89373 12.2482 4.7937 12.2859 4.70031C12.3236 4.60692 12.3797 4.52209 12.451 4.45087C12.5222 4.37965 12.607 4.32351 12.7004 4.28579C12.7938 4.24807 12.8938 4.22954 12.9945 4.23132C13.0952 4.23309 13.1945 4.25514 13.2865 4.29613C13.3785 4.33712 13.4613 4.39622 13.53 4.46991L17.53 8.4699C17.6705 8.6105 17.7493 8.8012 17.7493 8.9999C17.7493 9.1987 17.6705 9.3893 17.53 9.5299L13.53 13.5299C13.4608 13.6 13.3782 13.6556 13.2872 13.6934C13.1962 13.7312 13.0985 13.7504 13 13.7499Z" fill="white"/>
<path d="M17 9.75H6C5.80109 9.75 5.61032 9.671 5.46967 9.5303C5.32902 9.3897 5.25 9.1989 5.25 9C5.25 8.8011 5.32902 8.6103 5.46967 8.4697C5.61032 8.329 5.80109 8.25 6 8.25H17C17.1989 8.25 17.3897 8.329 17.5303 8.4697C17.671 8.6103 17.75 8.8011 17.75 9C17.75 9.1989 17.671 9.3897 17.5303 9.5303C17.3897 9.671 17.1989 9.75 17 9.75Z" fill="white"/>
</svg>
