<svg width="22" height="22" viewBox="0 0 22 22" fill="none" xmlns="http://www.w3.org/2000/svg">
<path d="M6.75 7.75H14.75H6.75Z" fill="#FDFAFA"/>
<path d="M6.75 7.75H14.75" stroke="white" stroke-width="1.5" stroke-linecap="round"/>
<path d="M6.75 11.25H12.25H6.75Z" fill="#FDFAFA"/>
<path d="M6.75 11.25H12.25" stroke="white" stroke-width="1.5" stroke-linecap="round"/>
<path d="M13.1034 18.5353L12.8338 18.0717L13.1034 18.5353ZM13.1034 18.5353C13.1009 18.5386 13.0985 18.5419 13.096 18.5453L13.096 18.5453C13.0204 18.6491 12.9412 18.7718 12.8505 18.92L12.4201 18.6653C12.5172 18.5067 12.6059 18.3689 12.692 18.2508L13.1034 18.5353ZM1.98371 2.8556L1.55524 2.59303C1.85086 2.20022 2.20022 1.85086 2.59303 1.55524L2.8556 1.98371C2.52833 2.23522 2.23522 2.52833 1.98371 2.8556ZM3.71444 1.47133L3.45059 1.04076C3.99639 0.798155 4.62362 0.66642 5.39344 0.593225C6.27372 0.509527 7.36101 0.500973 8.75 0.500099V1.00011C7.35812 1.00104 6.29531 1.00972 5.44076 1.09098C4.73119 1.15844 4.17956 1.27496 3.71444 1.47133ZM9.75 1V0.5H11.75V1H9.75ZM12.75 1.00011V0.500099C14.139 0.500973 15.2263 0.509526 16.1066 0.593225C16.8763 0.66642 17.5036 0.798154 18.0494 1.04077L17.7856 1.47133C17.3205 1.27496 16.7688 1.15844 16.0592 1.09098C15.2047 1.00973 14.1419 1.00104 12.75 1.00011ZM18.6444 1.98371L18.907 1.55522C19.2998 1.85085 19.6492 2.20022 19.9448 2.59302L19.5163 2.8556C19.2648 2.52832 18.9717 2.23521 18.6444 1.98371ZM20.4091 5.44075C20.3416 4.7312 20.2251 4.17957 20.0287 3.71443L20.4592 3.45059C20.7018 3.9964 20.8336 4.62363 20.9067 5.39343L20.9067 5.39346C20.9905 6.27373 20.999 7.36101 20.9999 8.75H20.4999C20.499 7.35812 20.4903 6.29532 20.4091 5.44078L20.4091 5.44075ZM21.4999 8.75C21.4991 7.36378 21.4907 6.25207 21.4045 5.34611L21.4999 8.75ZM20.4998 10.75H20.9998C20.999 11.6703 20.993 12.4003 20.9519 13.0028C20.9183 13.4948 20.8609 13.9106 20.7606 14.2843L20.2942 14.0911C20.3732 13.7754 20.4227 13.4129 20.453 12.9688L20.453 12.9687C20.4929 12.3838 20.4989 11.6704 20.4998 10.75ZM19.9227 15.0196L20.387 15.2119C19.8955 16.1377 19.1377 16.8955 18.2119 17.387L18.0196 16.9227C18.8241 16.4852 19.4852 15.8241 19.9227 15.0196ZM17.0911 17.2943L17.2842 17.7605C16.783 17.895 16.2037 17.953 15.4646 17.9788L15.456 17.4787C16.1449 17.4542 16.6605 17.4021 17.0911 17.2943ZM11.9089 19.5248L12.3392 19.7795L12.3065 19.8348L11.8762 19.5801L11.9089 19.5248ZM11.2507 20.3719L11.724 20.652C11.1684 21.1159 10.3316 21.1159 9.77602 20.652L10.2492 20.3719C10.557 20.5425 10.9429 20.5426 11.2507 20.3719ZM9.62375 19.5801L9.19348 19.8348L9.16075 19.7795L9.59101 19.5248L9.62375 19.5801ZM9.07982 18.6653L8.64947 18.9201C8.55871 18.7718 8.47953 18.6491 8.40398 18.5454L8.40387 18.5452C8.40143 18.5419 8.39899 18.5386 8.39656 18.5353L8.66618 18.0717C8.71444 18.1271 8.76135 18.1868 8.80811 18.2509C8.89414 18.369 8.98279 18.5067 9.07982 18.6653ZM1.57727 15.0196C2.0148 15.8241 2.67595 16.4852 3.48041 16.9227L3.2881 17.387C2.36233 16.8955 1.60449 16.1377 1.11301 15.2119L1.57727 15.0196ZM4.21576 17.7605L4.4089 17.2943C4.83948 17.4021 5.35511 17.4542 6.04403 17.4787L6.03542 17.9788C5.29628 17.953 4.71696 17.895 4.21576 17.7605ZM7.80132 17.5696L7.53165 18.0333C7.52486 18.0325 7.518 18.0317 7.51106 18.031L7.51073 18.0309C7.37604 18.0161 7.22098 18.0078 7.03516 18.002L7.04378 17.5021C7.24105 17.5081 7.41366 17.5171 7.56593 17.534C7.64822 17.5431 7.72645 17.5546 7.80132 17.5696ZM13.9683 18.0333L13.6986 17.5696C13.7735 17.5546 13.8517 17.5431 13.9339 17.534C14.0863 17.5171 14.2589 17.5081 14.4562 17.5021L14.4648 18.002C14.279 18.0078 14.1239 18.0161 13.9892 18.0309L13.9889 18.031C13.982 18.0317 13.9751 18.0325 13.9683 18.0333ZM1.47133 3.71444C1.27496 4.17956 1.15844 4.73119 1.09098 5.44076C1.00972 6.29531 1.00104 7.35812 1.00011 8.75H0.500099C0.500973 7.36101 0.509527 6.27372 0.593225 5.39344C0.66642 4.62362 0.798155 3.99639 1.04076 3.45059L1.47133 3.71444Z" fill="#FDFAFA" stroke="white"/>
</svg>
