<svg width="19" height="19" viewBox="0 0 19 19" fill="none" xmlns="http://www.w3.org/2000/svg">
<path d="M7.71692 11.0695L17.518 1.27205M7.99552 11.5101L10.2179 15.955C10.755 17.0291 11.0235 17.5662 11.3618 17.7102C11.6554 17.8352 11.991 17.8125 12.2652 17.6493C12.5811 17.4612 12.7751 16.8929 13.1632 15.7564L17.3623 3.45897C17.7005 2.46872 17.8695 1.97359 17.7538 1.64605C17.6531 1.36111 17.429 1.13697 17.1441 1.0363C16.8165 0.920582 16.3214 1.08965 15.3311 1.42778L3.03365 5.62693C1.89716 6.015 1.32891 6.20904 1.1408 6.52495C0.977547 6.7991 0.954927 7.1347 1.07991 7.42823C1.22393 7.76653 1.761 8.03513 2.83514 8.57213L7.27999 10.7946C7.45702 10.8831 7.54552 10.9273 7.62212 10.9864C7.69022 11.0389 7.75122 11.0999 7.80362 11.1679C7.86282 11.2446 7.90702 11.3331 7.99552 11.5101Z" stroke="white" stroke-width="2" stroke-linecap="round" stroke-linejoin="round"/>
</svg>
